# xmcd
#
# Track frame offsets:
#	150
#	10187
#	24391
#	35828
#	47961
#	57820
#	68353
#	84993
#	95220
#	105471
#	121533
#	139193
#
# Disc length: 2028 seconds
#
# Revision: 2
# Processed by: cddbd v1.5.2PL0 Copyright (c) Steve Scherf et al.
# Submitted via: audiograbber 1.83.01
#
DISCID=9307ea0c
DTITLE=Michelle Little - Live From Tamworth
DYEAR=2015
DGENRE=Country
TTITLE0=Come On In And Make Yourself At Home
TTITLE1=I Fatt To Pieces
TTITLE2=Two Cigarettes In An Ash Tray
TTITLE3=Never No More
TTITLE4=Love, Love Lome me Honey Do
TTITLE5=Pick Me Up On Your Way Down
TTITLE6=Wayward Wind
TTITLE7=Seven Lonely Days
TTITLE8=Stop Look And Listen
TTITLE9=Faded Love
TTITLE10=Crazy
TTITLE11=Life's Railway To Heaven
EXTD=The Songs of Patcy Cline.  Recorde at Legends, 25-Jan-2015..
EXTT0=
EXTT1=
EXTT2=
EXTT3=
EXTT4=
EXTT5=
EXTT6=
EXTT7=
EXTT8=
EXTT9=
EXTT10=
EXTT11=
PLAYORDER=
